<svg xmlns="http://www.w3.org/2000/svg" xmlns:xlink="http://www.w3.org/1999/xlink" version="1.1" x="0px" y="0px" viewBox="0 0 96 120" style="enable-background:new 0 0 96 96;" xml:space="preserve"><title>bat</title><g><g><path d="M69,10.5c-1.7,0-3,1.3-3,3v28.1c0,1.7-1.3,3-3,3s-3-1.3-3-3V31.5c0-1.7-1.3-3-3-3c-3.3,0-6.5,1.2-9,3.5    c-2.5-2.3-5.7-3.5-9-3.5c-1.7,0-3,1.3-3,3v10.1c0,1.7-1.3,3-3,3c-1.7,0-3-1.3-3-3V13.5c0-1.7-1.3-3-3-3c-14.9,0-27,12.1-27,27v12    c0,1.7,1.3,3,3,3c5,0,9,4,9,9c0,1.7,1.3,3,3,3h8c6,8.8,14.1,15.9,23.7,20.7c0.8,0.4,1.8,0.4,2.7,0c9.5-4.8,17.7-11.9,23.7-20.7h8    c1.7,0,3-1.3,3-3c0-5,4-9,9-9c1.7,0,3-1.3,3-3v-12C96.1,22.6,84,10.5,69,10.5C69,10.5,69,10.5,69,10.5z M42,52    c3.7,2.1,8.3,2.1,12,0v1.7c0,4.5-2.2,8.7-6,11.1c-3.8-2.4-6-6.6-6-11.1V52z M42,35.1c1.4,0.6,2.6,1.7,3.4,3.1    c0.8,1.4,2.6,2,4.1,1.2c0.5-0.3,0.9-0.7,1.2-1.2c0.8-1.4,1.9-2.5,3.4-3.1v6.5c0,3.3-2.7,6-6,6s-6-2.7-6-6V35.1z M90,46.8    c-5.9,1.2-10.5,5.8-11.7,11.7h-6.9c-1,0-2,0.5-2.5,1.4C63.7,68,56.5,74.6,48,79.1C39.5,74.6,32.3,68,27.1,59.9    c-0.6-0.9-1.5-1.4-2.5-1.4h-6.9C16.5,52.6,11.9,48,6,46.8v-9.3c0-10.4,7.7-19.3,18-20.8v24.9c0,5,4,9,9,9c1,0,2-0.2,3-0.5v3.6    c0,7.3,4.1,14,10.7,17.3c0.8,0.4,1.8,0.4,2.7,0C55.9,67.7,60,61,60,53.7v-3.6c1,0.3,2,0.5,3,0.5c5,0,9-4,9-9V16.7    c10.3,1.5,18,10.3,18,20.8V46.8z"/></g></g><text x="0" y="111" fill="#000000" font-size="5px" font-weight="bold" font-family="'Helvetica Neue', Helvetica, Arial-Unicode, Arial, Sans-serif">Created by Side Project</text><text x="0" y="116" fill="#000000" font-size="5px" font-weight="bold" font-family="'Helvetica Neue', Helvetica, Arial-Unicode, Arial, Sans-serif">from the Noun Project</text></svg>